<?xml version="1.0" standalone="no"?>
<!DOCTYPE svg PUBLIC "-//W3C//DTD SVG 20010904//EN"
 "http://www.w3.org/TR/2001/REC-SVG-20010904/DTD/svg10.dtd">
<svg version="1.0" xmlns="http://www.w3.org/2000/svg"
 width="594.000000pt" height="414.000000pt" viewBox="0 0 594.000000 414.000000"
 preserveAspectRatio="xMidYMid meet">
<metadata>
Created by potrace 1.14, written by Peter Selinger 2001-2017
</metadata>
<g transform="translate(0.000000,414.000000) scale(0.100000,-0.100000)"
fill="#000000" stroke="none">
<path d="M48 3078 c-5 -1523 3 -3002 16 -3014 8 -9 470 -13 1771 -17 968 -3
1761 -6 1763 -6 1 -1 2 -10 2 -21 0 -19 7 -20 96 -20 69 0 99 4 110 14 7 8 23
12 34 9 11 -3 20 -1 20 5 0 13 40 4 60 -14 20 -17 171 -18 182 -1 6 9 10 9 20
-1 14 -14 108 -16 108 -2 0 6 11 10 25 10 13 0 29 8 34 17 9 15 10 14 11 -9 0
-21 5 -28 20 -28 13 0 20 7 20 19 0 13 7 19 25 19 20 0 24 -4 20 -19 -6 -18
16 -19 777 -19 691 1 781 2 764 15 -11 8 -16 15 -12 15 5 0 3 6 -3 14 -6 7 -8
22 -5 32 5 15 3 14 -10 -3 -15 -20 -26 -23 -82 -23 l-64 0 0 1925 0 1925
-2850 0 -2850 0 -2 -822z m1798 -677 c-3 -5 -377 -9 -876 -9 -503 0 -870 4
-870 9 0 5 369 9 876 9 510 0 873 -4 870 -9z m-280 -980 c-3 -5 -318 -9 -736
-9 -422 0 -730 4 -730 9 0 5 311 9 736 9 429 0 733 -4 730 -9z m-98 -1108
c-252 -2 -664 -2 -915 0 -252 1 -46 2 457 2 503 0 709 -1 458 -2z m448 -22
c-8 -12 -1816 -12 -1816 0 0 5 384 9 911 9 531 0 908 -4 905 -9z"/>
</g>
</svg>
